<svg width="27" height="35" viewBox="0 0 27 35" fill="none" xmlns="http://www.w3.org/2000/svg">
<path d="M22.6131 19.5562C21.4669 21.8794 19.9138 24.1938 18.3256 26.2719C16.8191 28.231 15.2082 30.1077 13.5 31.8937C11.7917 30.1077 10.1809 28.2311 8.67438 26.2719C7.08625 24.1938 5.53313 21.8794 4.38688 19.5562C3.2275 17.2091 2.5625 15.0106 2.5625 13.125C2.5625 10.2242 3.71484 7.4422 5.76602 5.39102C7.8172 3.33984 10.5992 2.1875 13.5 2.1875C16.4008 2.1875 19.1828 3.33984 21.234 5.39102C23.2852 7.4422 24.4375 10.2242 24.4375 13.125C24.4375 15.0106 23.7703 17.2091 22.6131 19.5562ZM13.5 35C13.5 35 26.625 22.5619 26.625 13.125C26.625 9.64403 25.2422 6.30564 22.7808 3.84422C20.3194 1.38281 16.981 0 13.5 0C10.019 0 6.68064 1.38281 4.21922 3.84422C1.75781 6.30564 0.375 9.64403 0.375 13.125C0.375 22.5619 13.5 35 13.5 35Z" fill="#D7E8D1"/>
<path d="M13.5 17.5C12.3397 17.5 11.2269 17.0391 10.4064 16.2186C9.58594 15.3981 9.125 14.2853 9.125 13.125C9.125 11.9647 9.58594 10.8519 10.4064 10.0314C11.2269 9.21094 12.3397 8.75 13.5 8.75C14.6603 8.75 15.7731 9.21094 16.5936 10.0314C17.4141 10.8519 17.875 11.9647 17.875 13.125C17.875 14.2853 17.4141 15.3981 16.5936 16.2186C15.7731 17.0391 14.6603 17.5 13.5 17.5ZM13.5 19.6875C15.2405 19.6875 16.9097 18.9961 18.1404 17.7654C19.3711 16.5347 20.0625 14.8655 20.0625 13.125C20.0625 11.3845 19.3711 9.71532 18.1404 8.48461C16.9097 7.2539 15.2405 6.5625 13.5 6.5625C11.7595 6.5625 10.0903 7.2539 8.85961 8.48461C7.6289 9.71532 6.9375 11.3845 6.9375 13.125C6.9375 14.8655 7.6289 16.5347 8.85961 17.7654C10.0903 18.9961 11.7595 19.6875 13.5 19.6875Z" fill="#D7E8D1"/>
</svg>
