<svg width="140" height="100" viewBox="0 0 140 100" fill="none" xmlns="http://www.w3.org/2000/svg">
<path d="M55.7801 1.88261C52.0467 3.47992 47.1934 10.8088 49.7134 10.8088C50.1801 10.8088 51.0201 9.77522 51.5801 8.45979C53.7267 3.66784 63.0601 1.78865 67.3534 5.35912C69.7801 7.33227 71.3667 12.1242 70.7134 15.7886L70.2467 19.1712L65.8601 17.0101C58.6734 13.3457 46.1667 10.6209 46.1667 12.594C46.1667 13.0638 46.9134 13.6276 47.7534 13.8155C49.0601 14.0034 49.2467 15.037 49.0601 19.3591C48.7801 25.6544 50.6467 30.7282 54.0067 32.8893C55.9667 34.2048 56.7134 34.2987 58.9534 33.1712C60.3534 32.5135 62.4067 30.6343 63.4334 29.037C65.0201 26.594 65.7667 26.2182 69.4067 26.3121H73.5134L73.6067 18.3256C73.7001 13.5336 73.1401 9.11751 72.3934 7.33227C69.9667 1.31885 62.5001 -1.03014 55.7801 1.88261ZM62.0334 17.9497C67.2601 20.2987 70.4334 22.6477 70.4334 24.1511C70.4334 25.5605 67.7267 24.9027 66.7001 23.2115C65.9534 22.1779 65.4867 21.99 65.2067 22.7417C63.3401 27.1578 60.3534 30.0705 57.4601 30.3524C53.0734 30.8222 51.8601 28.6611 51.7667 20.7685V14.3792L54.3801 15.037C55.7801 15.3188 59.2334 16.6343 62.0334 17.9497Z" fill="white"/>
<path d="M52.7 17.4799C52.7 17.9497 53.1666 18.3255 53.7266 18.3255C54.38 18.3255 54.5666 19.453 54.1933 21.6141C53.6333 24.339 53.82 24.9027 55.1266 24.9027C56.2466 24.9027 56.4333 24.5269 55.6866 23.6812C55.22 23.0235 55.1266 21.7081 55.5933 20.6745C56.62 17.8557 56.62 17.6678 54.5666 17.1041C53.54 16.8222 52.7 17.0101 52.7 17.4799Z" fill="white"/>
<path d="M59.2334 19.2651C59.2334 20.3926 61.8467 21.2383 62.5001 20.2987C62.6867 19.8289 62.1267 19.2651 61.1001 18.9832C60.0734 18.7013 59.2334 18.7953 59.2334 19.2651Z" fill="white"/>
<path d="M93.1134 2.82219C90.22 4.04367 84.5267 11.2786 85.6467 12.3121C85.9267 12.594 87.7934 10.9967 89.8467 8.74166C93.2067 5.17119 94.14 4.70139 97.6867 4.70139C105.34 4.70139 110.473 10.8088 109.167 18.3255L108.607 21.896L101.607 18.6074C96.1 15.9766 93.2067 15.1309 87.8867 14.943C82.4734 14.6611 81.6334 14.7551 83.6867 15.6007C86.02 16.5403 86.1134 16.8222 85.74 21.4262C84.8067 31.292 89.66 39.5604 95.3534 37.4933C96.7534 37.0235 99.18 34.9564 100.767 32.8893C103.38 29.3188 103.847 29.1309 106.553 29.8826C111.687 31.386 112.06 30.7282 112.247 20.5806C112.433 12.688 112.153 10.8088 110.567 8.1779C106.833 2.07051 99.74 -0.0905571 93.1134 2.82219ZM99.8334 20.3927C107.673 24.4329 111.313 28.2853 106.647 27.5336C105.433 27.3457 104.593 26.688 104.78 26.0302C105.153 24.1511 103.287 24.8088 102.633 26.7819C100.393 34.0168 92.3667 36.9296 89.5667 31.4799C88.26 28.849 87.6067 18.3255 88.7267 17.198C89.4734 16.4464 95.3534 18.1376 99.8334 20.3927Z" fill="white"/>
<path d="M90.3134 20.4867C91.6201 21.6142 91.7134 22.3659 91.0601 24.245C90.2201 26.4061 90.5001 27.7216 91.8067 27.7216C92.0867 27.7216 92.3667 25.9363 92.3667 23.7752C92.3667 20.4867 91.9934 19.735 90.5001 19.4531C88.7267 19.1712 88.7267 19.2652 90.3134 20.4867Z" fill="white"/>
<path d="M96.5667 21.99C96.5667 23.0236 99.46 24.2451 100.207 23.4934C100.487 23.2115 100.113 22.5538 99.3667 22.084C97.5933 20.9565 96.5667 20.9565 96.5667 21.99Z" fill="white"/>
<path d="M59.3267 6.67456C56.9933 9.68127 56.8067 11.7484 58.86 11.7484C59.7 11.7484 61.94 12.688 63.8067 13.8155C66.5133 15.5068 66.8867 15.6007 65.86 14.1913C65.1133 13.3457 63.2467 11.9363 61.7533 11.1846C59.14 9.77523 59.14 9.68127 60.6333 7.33228C62.78 4.13765 61.7533 3.57389 59.3267 6.67456Z" fill="white"/>
<path d="M55.5 7.52017C55.5 8.27185 55.6867 8.92957 55.8733 8.92957C56.06 8.92957 56.4333 8.27185 56.8067 7.52017C57.0867 6.76849 56.9 6.11077 56.4333 6.11077C55.8733 6.11077 55.5 6.76849 55.5 7.52017Z" fill="white"/>
<path d="M62.9668 7.05039C62.1268 7.61415 62.0335 7.98999 62.6868 7.98999C63.2468 7.98999 64.0868 7.52019 64.3668 7.05039C65.1135 5.92288 64.7401 5.92288 62.9668 7.05039Z" fill="white"/>
<path d="M96.1933 8.17785C94.42 10.7148 94.2333 13.6275 95.9133 13.6275C96.5667 13.6275 98.7133 14.4731 100.767 15.5067L104.5 17.4799L102.073 15.3188C100.767 14.0973 98.9 12.6879 98.06 12.2181C96.4733 11.3725 96.5667 11.0906 98.4333 8.64764C100.02 6.67449 100.113 6.11073 98.9933 6.11073C98.2467 6.11073 96.94 7.05033 96.1933 8.17785Z" fill="white"/>
<path d="M66.0466 8.4597C66.0466 9.21138 66.42 9.58722 66.8866 9.30534C67.3533 9.02346 67.4466 8.36574 67.1666 7.89594C66.3266 6.67447 66.0466 6.86238 66.0466 8.4597Z" fill="white"/>
<path d="M52.2334 9.86912C51.9534 10.3389 52.14 10.8087 52.6067 10.8087C53.1667 10.8087 53.6334 10.3389 53.6334 9.86912C53.6334 9.30536 53.4467 8.92952 53.26 8.92952C52.98 8.92952 52.5134 9.30536 52.2334 9.86912Z" fill="white"/>
<path d="M91.4333 11.7484C91.1533 12.2182 91.34 12.688 91.8066 12.688C92.3666 12.688 92.8333 12.2182 92.8333 11.7484C92.8333 11.1846 92.6466 10.8088 92.46 10.8088C92.18 10.8088 91.7133 11.1846 91.4333 11.7484Z" fill="white"/>
<path d="M68.6599 14.1912C68.6599 15.2248 68.9399 15.5067 69.2199 14.755C69.4999 14.0973 69.4066 13.2517 69.1266 12.9698C68.8466 12.5939 68.5666 13.1577 68.6599 14.1912Z" fill="white"/>
<path d="M106.553 15.4129C106.367 16.3525 106.46 17.7618 106.927 18.4196C107.487 19.3592 107.767 18.7954 107.767 16.6343C107.767 13.2518 107.3 12.688 106.553 15.4129Z" fill="white"/>
<path d="M46.6334 29.6008C46.3534 30.0706 44.2067 30.5404 41.9667 30.5404C37.4867 30.5404 33.1001 31.9498 31.9801 33.641C30.9534 35.2383 31.1401 38.9967 32.4467 42.5672C34.1267 47.2652 35.4334 46.7014 35.0601 41.5336C34.7801 35.8021 35.9934 34.2987 41.1267 34.2987C44.1134 34.2987 45.7001 33.735 47.1001 32.2316C48.1267 31.1041 48.9667 29.8826 48.9667 29.4128C48.9667 28.3793 47.2867 28.4732 46.6334 29.6008Z" fill="white"/>
<path d="M2.86002 32.5135C1.08668 33.9229 0.43335 35.3323 0.43335 37.5873C0.43335 43.8826 11.54 50.2719 31.3267 55.3457C44.9534 58.8222 69.6867 63.1444 83.0334 64.3658C104.967 66.245 118.22 62.2987 114.3 54.9699C112.9 52.433 109.633 51.2115 104.127 51.2115C99.3667 51.2115 94.7 53.8424 94.7 56.3793C94.7 58.2585 98.4334 61.5471 100.673 61.641C101.793 61.735 101.047 62.1108 99.0867 62.4867C86.58 64.9296 36.6467 54.9699 16.58 46.0437C7.80668 42.0974 4.54002 37.5873 8.83335 35.2383C10.8867 34.1108 17.6067 35.3323 22.0867 37.6813C23.9534 38.6209 25.26 38.8088 25.82 38.245C26.7534 37.3054 21.2467 33.5471 16.02 31.5739C11.6334 29.8826 5.66002 30.3524 2.86002 32.5135ZM110.007 54.594C112.713 57.3189 111.5 59.7618 106.833 60.9833C104.873 61.5471 104.78 61.4531 106.18 60.6075C108.607 59.0101 108.14 57.6947 105.433 58.7283C104.127 59.1981 102.447 59.386 101.7 59.1041C98.34 57.7887 101.607 53.0907 105.9 53.0907C107.393 53.0907 109.26 53.7484 110.007 54.594Z" fill="white"/>
<path d="M83.1266 32.9832C82.1 33.7349 79.4866 34.2987 77.2466 34.2987C75.0066 34.2987 71.74 34.9564 69.9666 35.6141C66.98 36.9295 66.7 37.3054 66.7 41.1577C66.7 45.7618 68.2866 51.2114 69.5933 51.2114C70.06 51.2114 70.4333 48.6745 70.4333 45.5738C70.4333 39.0906 71.46 38.0571 78.18 38.0571C81.6333 38.0571 82.66 37.6812 83.8733 35.6141C85.9266 32.6074 85.46 31.198 83.1266 32.9832Z" fill="white"/>
<path d="M102.82 32.1376C101.887 33.547 106.087 38.8088 108.7 39.4665C113.833 40.688 128.207 48.4866 130.54 51.2115C133.06 54.2182 137.167 66.0571 138.473 74.1376C139.22 78.6477 139.313 78.3658 139.407 70.3792C139.5 60.6074 138.007 55.1578 133.9 50.0839C130.82 46.3256 121.02 40.8759 113.367 38.6209C109.82 37.5873 107.487 36.1779 105.807 34.1108C104.5 32.5135 103.1 31.5739 102.82 32.1376Z" fill="white"/>
<path d="M47.2867 37.5873C48.4067 40.1242 49.8067 40.594 51.58 38.8088C53.82 36.5538 53.9134 39.1846 51.86 45.7618C50.0867 51.2115 49.9 52.5269 51.02 53.1846C53.26 54.688 54.1 53.4665 54.38 48.2987C54.66 42.0034 55.3134 38.9967 56.34 38.9967C56.8067 38.9967 57.46 40.0303 57.74 41.3457C58.58 44.5404 59.7 44.2585 62.4067 40.2182C65.3 35.99 64.5534 34.5806 61.5667 38.433L59.3267 41.2518L58.2067 38.7148C56.7134 35.4263 54.94 34.9565 52.0467 36.8357C49.8067 38.339 49.62 38.339 48.5 36.8357C46.82 34.4867 46.0734 34.8625 47.2867 37.5873Z" fill="white"/>
<path d="M82.5667 39.4665C82.5667 39.6544 83.0333 40.9698 83.6867 42.2852C84.9 44.9161 86.4867 45.292 88.1667 43.2248C91.4333 39.2785 91.34 42.849 87.98 52.4329C86.3 57.1309 86.2067 58.0705 87.3267 58.8222C90.1267 60.6074 90.6867 59.5738 91.34 52.3389C92.18 43.3188 93.3 40.9698 94.7933 45.292C95.3533 46.9832 96.1933 48.3926 96.66 48.3926C97.9667 48.3926 102.54 40.8759 101.7 40.1242C101.327 39.7483 100.767 40.0302 100.58 40.594C100.3 41.2517 99.3667 42.755 98.5267 43.8826L96.8467 45.9497L95.3533 43.0369C93.3933 39.2785 91.8067 38.8087 89.0067 40.9698C86.1133 43.2248 85.6467 43.2248 84.9 40.8759C84.4333 39.2785 82.5667 38.151 82.5667 39.4665Z" fill="white"/>
<path d="M21.9934 66.8088C29.8334 75.3591 38.7934 85.1309 41.8734 88.5135L47.5667 94.6208L56.62 96.3121C72.3 99.3188 87.14 100.54 93.3 99.3188C96.2867 98.6611 99.5534 97.5336 100.487 96.594C102.26 94.9967 102.82 89.7349 101.233 89.7349C100.767 89.7349 100.3 90.5806 100.3 91.6141C100.3 95.1846 95.26 96.7819 83.9667 96.688C74.0734 96.594 68.4734 95.8423 55.3134 92.9296L49.1534 91.5202L33.66 73.292C20.4067 57.8826 17.42 54.8759 13.5 53.1846C10.98 52.0571 8.6467 51.2115 8.3667 51.2115C7.99337 51.2115 14.1534 58.2584 21.9934 66.8088Z" fill="white"/>
<path d="M112.9 64.3658C111.687 65.6812 111.407 67.0906 111.78 69.3457C112.62 74.5135 111.687 75.0772 103.753 74.4195C98.4333 73.9497 96.4733 74.1376 95.7267 75.0772C94.5133 76.5806 96.1933 78.8356 99.3667 79.8692C100.673 80.245 101.42 81.6544 101.793 84.1913C102.26 87.0101 103.1 88.2316 105.06 89.2651C109.447 91.6141 114.02 91.0504 117.193 87.9497C118.687 86.4463 119.9 84.6611 119.9 83.9094C119.9 83.2517 119.153 83.6275 118.22 84.849C116.26 87.3859 110.473 89.1712 106.74 88.3255C104.313 87.7618 103.94 87.292 104.407 85.5067C104.78 84.1913 104.5 83.0638 103.753 82.7819C102.913 82.3121 102.913 82.1242 103.847 81.6544C105.9 80.6208 104.967 79.4933 101.233 78.4598C94.8867 76.7685 96.8467 75.547 105.713 75.8289L113.833 76.1108L113.553 70.849C113.367 67.7484 113.647 65.2114 114.207 64.8356C114.86 64.4598 115.233 65.2114 115.233 66.8088C115.233 68.2182 116.167 70.7551 117.193 72.5403C118.873 75.2651 119.06 76.2047 118.127 78.1779C116.633 81.3725 117.473 82.0302 119.433 79.1175C120.833 76.9564 120.833 76.4866 119.247 73.1041C118.407 71.1309 117.38 68.1242 117.1 66.339C116.54 62.3926 115.233 61.8289 112.9 64.3658Z" fill="white"/>
<path d="M123.82 76.3927C122.887 77.0504 122.887 77.8021 123.633 79.7752C124.66 82.594 123.913 84.849 120.46 88.6074L118.5 90.8625L121.113 93.0235C125.687 97.0638 135.207 98.5672 138.007 95.7484C138.94 94.8088 139.5 92.7417 139.407 89.9229C139.313 85.6007 139.313 85.6007 138.473 88.5135C136.793 94.5269 129.793 96.0303 124.38 91.7081C122.233 89.9229 122.233 89.9229 124.007 87.9497C125.033 86.8222 125.873 84.3792 125.967 82.4061C126.06 79.4933 126.433 79.0235 127.927 79.2115C130.447 79.6813 131.753 81.1846 133.433 85.5068L134.833 89.2652L134.46 84.1913C134.18 80.245 133.62 78.6477 132.033 77.3323C129.887 75.547 125.873 75.1712 123.82 76.3927Z" fill="white"/>
</svg>
