<svg width="97" height="114" viewBox="0 0 97 114" fill="none" xmlns="http://www.w3.org/2000/svg">
<path d="M10.2999 12.3086V24.5234H13.0999C15.8999 24.5234 15.8999 24.6173 15.8999 29.6912C15.8999 32.8858 16.2733 34.8589 16.9266 34.8589C18.3266 34.8589 18.2333 35.5167 8.33993 73.7583C3.01993 94.2415 0.126599 107.396 0.499932 108.805C1.15327 111.624 3.2066 112.47 6.0066 111.154C7.77993 110.403 8.61993 108.241 10.9533 99.5032L13.7533 88.8858L18.5133 88.6039L23.3666 88.322V98.9395C23.4599 105.799 23.8333 110.121 24.5799 111.06C26.4466 113.409 28.6866 113.785 30.7399 112.094C32.4199 110.684 32.6999 109.275 32.8866 99.6911L33.1666 88.8858L37.5533 88.6039C42.7799 88.2281 42.7799 88.322 45.7666 100.443C46.8866 105.235 48.4733 109.839 49.2199 110.59C51.1799 112.564 53.9799 112.188 55.4733 109.839C56.6866 107.866 56.4066 106.08 52.7666 92.1744C37.6466 33.4495 38.1133 35.5167 39.6999 34.671C40.6333 34.1073 41.0999 32.416 41.0999 29.2214C41.0999 24.8992 41.2866 24.5234 43.3399 24.5234C45.1133 24.5234 45.6733 23.9596 45.9533 21.8925C46.2333 19.5435 46.6066 19.3556 50.7133 19.0737L55.0999 18.7918V12.3086V5.82539L50.7133 5.5435C46.6066 5.26163 46.2333 5.07371 45.9533 2.63075L45.6733 0.0938416H27.9399H10.2999V12.3086ZM44.6466 12.0267L44.3666 22.1744L28.3133 22.4563L12.1666 22.6442V12.3086V1.97304H28.4999H44.9266L44.6466 12.0267ZM53.2333 12.4026V17.1005L49.7799 16.8187C46.2333 16.5368 46.2333 16.5368 45.9533 12.0267L45.6733 7.61062H49.4066H53.2333V12.4026ZM39.2333 28.7516V32.9797H28.4999H17.7666V28.7516V24.5234H28.4999H39.2333V28.7516ZM23.3666 39.7448C23.3666 42.4697 22.1533 49.1408 20.6599 54.5905C19.1666 60.0401 15.9933 72.2549 13.5666 81.8388C7.31327 106.738 6.5666 109.181 4.97993 109.745C4.23327 110.027 3.11327 109.745 2.55327 109.181C1.43327 108.054 1.5266 107.584 13.6599 60.2281C17.0199 47.0737 20.0066 35.9865 20.1933 35.6106C20.4733 35.2348 21.3133 34.8589 22.0599 34.8589C22.9933 34.8589 23.3666 36.0804 23.3666 39.7448ZM30.8333 72.3489C30.8333 105.611 30.6466 109.933 29.3399 111.06C28.0333 112.094 27.6599 112 26.5399 110.497C25.5133 109.087 25.2333 101.852 25.2333 71.7851V34.8589H28.0333H30.8333V72.3489ZM39.6066 48.2012C52.5799 98.3757 54.8199 107.772 54.4466 108.805C53.8866 110.121 50.8066 110.497 50.1533 109.275C49.6866 108.617 47.2599 99.2214 37.4599 61.0737C32.2333 40.8724 31.5799 34.8589 34.4733 34.8589C35.8733 34.8589 36.7133 37.02 39.6066 48.2012ZM23.5533 69.624L23.2733 87.4764H18.6066C14.5933 87.4764 13.9399 87.2885 14.4066 85.7851C14.6866 84.9395 16.6466 77.4227 18.6999 69.1542C22.8066 53.1811 23.1799 51.7717 23.5533 51.7717C23.7399 51.7717 23.7399 59.7583 23.5533 69.624ZM37.4599 68.2146C43.0599 89.8254 43.0599 87.4764 37.4599 87.4764H32.6999V69.9059C32.6999 60.322 32.8866 52.6173 33.0733 52.8052C33.2599 52.9932 35.2199 59.9462 37.4599 68.2146Z" fill="white"/>
<path d="M14.0333 9.95963C14.0333 13.4361 14.4067 16.067 14.9667 16.067C15.5267 16.067 15.9 13.718 15.9 10.8992V5.73145H19.1667C20.94 5.73145 22.4333 5.26165 22.4333 4.79185C22.4333 4.22809 20.5667 3.85225 18.2333 3.85225H14.0333V9.95963Z" fill="white"/>
<path d="M25.4198 8.17442C23.1798 9.77173 22.6198 13.9999 24.4865 15.8791C26.4465 17.8523 30.6465 17.1946 32.2332 14.7516C34.4732 11.369 32.0465 6.67106 28.1265 6.67106C27.8465 6.67106 26.5398 7.32878 25.4198 8.17442ZM30.8332 10.5234C31.6732 11.9328 31.5798 12.7784 30.7398 13.812C29.0598 15.8791 25.7932 15.0335 25.4198 12.4026C24.8598 8.64422 29.0598 7.14086 30.8332 10.5234Z" fill="white"/>
<path d="M83.0999 55.9998V111.906H89.6332H96.1665V55.9998V0.093811H89.6332H83.0999V55.9998ZM94.2999 55.9998V110.027H89.6332H84.9665V106.268C84.9665 103.543 85.3399 102.51 86.3665 102.51C87.1132 102.51 87.7665 102.04 87.7665 101.57C87.7665 101.007 87.1132 100.631 86.2732 100.631C85.1532 100.631 84.9665 99.7851 85.1532 97.1542C85.4332 94.0535 85.8065 93.4898 88.2332 93.02L91.0332 92.3623L88.0465 92.2683C85.0599 92.1743 84.9665 91.9864 84.9665 88.416C84.9665 85.5032 85.3399 84.6576 86.6465 84.6576C88.1399 84.5636 88.1399 84.5636 86.6465 83.3421C85.6199 82.5904 84.9665 80.8992 84.9665 79.1139C84.9665 76.4831 85.2465 76.2012 87.7665 76.2012C89.3532 76.2012 90.5665 75.7314 90.5665 75.2616C90.5665 74.6978 89.3532 74.322 87.7665 74.322C85.1532 74.322 84.9665 74.0401 84.9665 71.0334C84.9665 68.7784 85.4332 67.7448 86.3665 67.7448C87.1132 67.7448 87.7665 67.275 87.7665 66.8052C87.7665 66.2415 87.1132 65.8656 86.3665 65.8656C85.4332 65.8656 84.9665 64.8321 84.9665 62.577C84.9665 59.5703 85.1532 59.2884 87.7665 59.2884C89.3532 59.2884 90.5665 58.8186 90.5665 58.3488C90.5665 57.7851 89.3532 57.4092 87.7665 57.4092C85.2465 57.4092 84.9665 57.1274 84.9665 54.4965C84.9665 52.7113 85.6199 51.02 86.6465 50.2683C88.1399 49.0468 88.1399 49.0468 86.6465 48.9529C85.3399 48.9529 84.9665 48.1072 84.9665 45.1945C84.9665 41.624 85.1532 41.4361 87.8599 41.4361C89.4465 41.4361 90.4732 41.0602 90.0999 40.4965C89.8199 39.9327 88.5132 39.5569 87.2065 39.5569C85.2465 39.5569 84.9665 39.0871 84.9665 36.2683C84.9665 34.0133 85.4332 32.9797 86.3665 32.9797C87.1132 32.9797 87.7665 32.5099 87.7665 32.0401C87.7665 31.4764 87.1132 31.1005 86.3665 31.1005C85.4332 31.1005 84.9665 30.067 84.9665 27.8119C84.9665 24.8052 85.1532 24.5233 87.7665 24.5233C89.3532 24.5233 90.5665 24.0535 90.5665 23.5837C90.5665 23.02 89.3532 22.6441 87.7665 22.6441C85.1532 22.6441 84.9665 22.3623 84.9665 19.3556C84.9665 17.1005 85.4332 16.067 86.3665 16.067C87.1132 16.067 87.7665 15.5972 87.7665 15.1274C87.7665 14.5636 87.1132 14.1878 86.3665 14.1878C85.4332 14.1878 84.9665 13.1542 84.9665 10.8992C84.9665 8.08038 85.2465 7.61059 87.2065 7.61059C88.5132 7.61059 89.8199 7.14079 90.0999 6.67099C90.4732 6.10723 89.4465 5.73139 87.8599 5.73139C85.6199 5.73139 84.9665 5.35555 84.9665 3.8522C84.9665 2.25488 85.6199 1.97301 89.6332 1.97301H94.2999V55.9998Z" fill="white"/>
</svg>
