<svg width="128" height="121" viewBox="0 0 128 121" fill="none" xmlns="http://www.w3.org/2000/svg">
<path d="M10.0866 1.27187C5.88657 3.15106 2.0599 7.28529 1.03323 11.0437C0.286565 13.2987 0.0998985 26.3591 0.286565 49.3792L0.566565 84.2383L3.1799 87.6209C8.40657 94.5739 6.63323 94.386 56.0999 94.4799C80.4599 94.5739 100.9 94.292 101.367 93.8222C102.113 93.3524 102.3 80.386 102.207 54.2652C102.113 32.9363 102.02 15.1779 101.927 14.7081C101.927 14.3323 86.1532 14.0504 67.0199 14.0504H32.2999L30.4332 10.198C27.7266 4.4665 22.6866 0.708107 17.1799 0.332268C14.7532 0.144348 11.4866 0.520187 10.0866 1.27187ZM22.8732 6.25173C27.6332 9.8222 27.6332 9.91616 27.9132 39.7954L28.1932 67.7954L25.1132 65.6343C20.7266 62.4397 10.9266 62.4397 6.72657 65.5403L3.83323 67.7014V40.2652C3.83323 14.7081 3.92657 12.641 5.6999 9.91616C7.3799 7.19133 9.3399 5.68797 13.1666 4.27858C15.4999 3.43294 20.4466 4.4665 22.8732 6.25173ZM98.0999 54.1712V90.6276L56.2866 90.5336C33.3266 90.4397 13.8199 90.3457 12.9799 90.2517C10.0866 90.0638 4.8599 84.6142 4.20657 81.1376C3.36657 76.5336 4.39323 73.4329 8.03323 69.7685C10.5532 67.2316 11.7666 66.6678 15.3132 66.6678C21.2866 66.6678 25.3932 69.6746 27.3532 75.594C28.1932 78.2249 29.4066 80.292 30.1532 80.292C31.0866 80.292 31.3666 74.4665 31.6466 49.0034L31.8332 17.8088H64.9666H98.0999V54.1712Z" fill="white"/>
<path d="M38.0866 26.9229C37.8066 28.4263 37.8066 35.4733 38.2733 42.0504L38.3666 44.1176L65.2466 43.9296L92.0333 43.6478V34.7216V25.7954L65.2466 25.5135C40.3266 25.3256 38.4599 25.4196 38.0866 26.9229ZM88.5799 34.4397L88.2999 39.8894L65.2466 40.1712C47.0466 40.3592 42.0999 40.1712 42.0066 39.2316C42.0066 38.5739 41.8199 36.5068 41.7266 34.7216C41.3533 28.8021 40.2333 29.084 65.6199 29.084H88.8599L88.5799 34.4397Z" fill="white"/>
<path d="M38.0866 52.7618C37.8999 53.9833 37.7132 57.2718 37.8066 60.0906L37.9932 65.2584H45.3666H52.6466L52.9266 59.6208C53.2999 50.6947 53.2999 50.6947 45.3666 50.6947C39.1132 50.6947 38.5532 50.8826 38.0866 52.7618ZM49.1932 58.3994C49.2866 61.8759 49.1932 61.9698 45.8332 61.9698C42.0999 61.9698 40.7932 60.1846 41.8199 56.2383C42.2866 54.7349 42.9399 54.4531 45.6466 54.641C48.8199 54.9229 49.0066 55.1108 49.1932 58.3994Z" fill="white"/>
<path d="M57.9666 58.2114V65.8221L65.2466 65.5403L72.4332 65.2584V58.2114V51.1644L65.2466 50.8825L57.9666 50.6007V58.2114ZM68.9799 58.3993L69.2599 61.9698H65.5266H61.6999V58.1174V54.3591L65.2466 54.6409C68.5132 54.9228 68.6999 55.1107 68.9799 58.3993Z" fill="white"/>
<path d="M77.5667 58.2114V65.8221L84.8467 65.5403L92.0333 65.2584V58.2114V51.1644L84.8467 50.8825L77.5667 50.6007V58.2114ZM88.7667 58.2114V61.9698H85.0333H81.3V58.2114V54.453H85.0333H88.7667V58.2114Z" fill="white"/>
<path d="M38.0866 73.6209C37.2466 75.688 38.2732 76.0638 45.3666 76.0638C52.4599 76.0638 53.4866 75.688 52.6466 73.6209C51.9932 71.7417 38.7399 71.7417 38.0866 73.6209Z" fill="white"/>
<path d="M58.6199 72.9632C58.2466 73.2451 57.9666 74.0907 57.9666 74.8424C57.9666 75.782 59.7399 76.0638 64.7799 76.0638C72.0599 76.0638 73.0866 75.688 72.2466 73.6209C71.8732 72.6813 70.0066 72.3055 65.5266 72.3055C62.0732 72.3055 58.8999 72.5873 58.6199 72.9632Z" fill="white"/>
<path d="M77.5667 74.1846C77.5667 76.0638 78.0333 76.1578 84.8467 75.8759C90.4467 75.688 92.0333 75.3122 92.0333 74.1846C92.0333 73.0571 90.4467 72.6813 84.8467 72.4934C78.0333 72.2115 77.5667 72.3054 77.5667 74.1846Z" fill="white"/>
<path d="M38.0865 80.386C37.8065 80.6678 37.8065 81.5135 38.0865 82.2652C38.7398 84.1444 51.9931 84.1444 52.6465 82.2652C52.9265 81.5135 52.9265 80.6678 52.6465 80.386C51.8998 79.6343 38.8331 79.6343 38.0865 80.386Z" fill="white"/>
<path d="M58.1532 81.4196C58.4332 82.829 59.4599 83.1108 65.4332 83.1108C71.0332 83.1108 72.4332 82.829 72.4332 81.7014C72.4332 80.5739 70.8466 80.1981 65.1532 80.0102C58.5266 79.7283 57.8732 79.9162 58.1532 81.4196Z" fill="white"/>
<path d="M77.7533 81.4196C78.0333 82.829 79.06 83.1108 85.0333 83.1108C90.6333 83.1108 92.0333 82.829 92.0333 81.7014C92.0333 80.5739 90.4467 80.1981 84.7533 80.0102C78.1267 79.7283 77.4733 79.9162 77.7533 81.4196Z" fill="white"/>
<path d="M113.78 12.4531C112.66 14.6142 110.513 18.8423 109.113 21.8491L106.5 27.3927V70.0504C106.5 115.997 106.593 116.654 111.353 119.003C115.46 120.977 116.86 121.164 120.5 119.661C127.127 117.03 127.033 117.406 127.033 69.7685V27.6746L122.647 18.5605C120.313 13.5806 117.793 9.25845 117.047 8.97657C116.3 8.69469 115.087 10.0101 113.78 12.4531ZM119.567 21.2853C120.593 23.6343 121.433 25.7014 121.433 25.7954C121.433 26.1712 112.847 25.5135 112.473 25.0437C111.727 24.292 116.113 16.0236 116.86 16.4933C117.327 16.7752 118.54 18.8423 119.567 21.2853ZM114.9 65.0705C114.9 84.4262 114.62 100.399 114.34 100.681C114.06 100.963 113.033 101.057 112.007 100.775C110.327 100.305 110.233 99.1779 110.233 65.1645V30.0236H112.567H114.9V65.0705ZM123.3 65.2585V100.493H120.967H118.633V65.2585V30.0236H120.967H123.3V65.2585ZM122.273 105.097C123.207 105.191 123.393 106.225 123.02 109.607C122.46 114.681 120.687 116.467 116.207 116.467C112.38 116.467 110.233 113.648 110.233 108.856C110.233 104.44 110.607 104.346 122.273 105.097Z" fill="white"/>
<path d="M1.03317 99.5537C0.37984 99.9296 0.0998397 103.688 0.286506 110.453L0.566506 120.695L50.4998 120.789C77.9398 120.883 100.9 120.601 101.367 120.131C102.86 119.003 102.487 100.587 100.993 99.6477C99.5932 98.7081 2.52651 98.6141 1.03317 99.5537ZM97.9132 110.077C98.0998 116.185 97.9132 117.312 96.7932 116.842C96.0465 116.56 95.2998 115.433 95.1132 114.305C94.7398 111.675 92.1265 111.581 91.7532 114.211C91.5665 115.339 90.6332 116.466 89.6998 116.748C88.2065 117.124 87.9265 116.654 87.6465 113.836C87.4598 111.487 86.8998 110.265 85.7798 110.077C84.5665 109.889 84.1932 110.547 83.9132 113.272C83.5398 117.782 81.5798 118.534 80.0865 114.681C78.7798 111.205 76.9132 110.923 76.0732 114.117C75.6998 115.621 74.8598 116.466 73.7398 116.466C72.3398 116.466 71.9665 115.809 71.9665 113.084C71.9665 110.453 71.6865 109.795 70.3798 110.077C69.1665 110.265 68.6065 111.393 68.4198 113.93C68.1398 116.748 67.7665 117.406 66.5532 117.218C65.6198 117.03 64.8732 115.809 64.6865 114.305C64.3132 111.111 61.4198 111.111 60.9532 114.399C60.4865 117.876 57.2198 117.124 56.8465 113.46C56.3798 108.762 53.4865 108.668 53.1132 113.272C52.7398 117.782 50.7798 118.44 49.4732 114.681C48.2598 111.111 45.8332 110.829 45.8332 114.117C45.8332 115.997 45.3665 116.466 43.4998 116.466C41.5398 116.466 41.1665 116.091 41.6332 114.305C41.9132 113.178 41.7265 111.675 41.2598 110.923C39.8598 108.762 37.6198 110.453 37.2465 113.836C36.8732 117.782 34.2598 118.064 33.8865 114.305C33.5132 110.829 30.5265 111.205 30.1532 114.775C29.6865 118.44 26.4198 117.312 26.0465 113.272C25.6732 109.138 23.0598 109.42 22.4998 113.648C21.9398 117.876 19.0465 118.722 18.5798 114.869C18.2065 111.017 15.0332 110.641 15.0332 114.399C15.0332 116.748 14.7532 117.124 13.1665 116.748C11.8598 116.373 11.2998 115.433 11.2998 113.554C11.2998 111.862 10.7398 110.547 9.80651 110.171C7.93984 109.513 6.72651 111.393 7.37984 113.836C7.75317 115.527 6.35317 117.312 4.57984 117.406C4.11317 117.406 3.83317 114.305 3.83317 110.453C3.83317 104.628 4.11317 103.406 5.41984 103.124C6.25984 102.936 27.3532 102.842 52.2732 102.842H97.6332L97.9132 110.077Z" fill="white"/>
</svg>
