<svg width="127" height="127" viewBox="0 0 127 127" fill="none" xmlns="http://www.w3.org/2000/svg">
<path d="M34.0068 1.76849C31.5801 3.74165 29.9001 6.84232 29.9001 9.37923C29.9001 10.8826 29.1534 11.2584 25.9801 11.5403C22.2468 11.8222 21.9668 12.0101 21.6868 14.8289L21.4068 17.9296H12.6334C-1.17989 17.9296 0.0334389 12.4799 0.0334389 72.4262C0.0334389 121.849 0.0334388 122.883 1.90011 124.856C3.86011 126.923 4.04677 126.923 39.7934 126.923C73.5801 126.923 75.7268 126.829 75.4468 125.326C75.1668 123.728 72.4601 123.634 39.7001 123.164L4.23344 122.695V72.4262V22.1578L12.8201 21.8759L21.4068 21.594L21.6868 25.1645L21.9668 28.7349L44.8334 29.0168C57.4334 29.1108 68.6334 29.0168 69.8468 28.7349C71.5268 28.3591 71.9001 27.6074 71.9001 24.8826V21.594L80.5801 21.8759L89.1668 22.1578L89.6334 47.9967C90.0068 70.1712 90.2868 73.8356 91.5001 73.8356C92.7134 73.8356 92.9001 70.2651 93.1801 48.3725C93.3668 23.7551 93.3668 22.8155 91.4068 20.4665C89.5401 18.0235 89.0734 17.9296 80.7668 17.9296H71.9934L71.7134 14.8289C71.4334 12.0101 71.1535 11.8222 67.6068 11.5403C63.9668 11.2584 63.6868 11.0705 63.0334 7.87588C62.7534 6.09064 61.3534 3.55373 60.0468 2.33225C57.8068 0.265137 56.9668 0.0772247 46.7934 0.0772247C37.9268 0.0772247 35.5934 0.453056 34.0068 1.76849ZM58.2734 5.90273C59.1134 7.03024 59.7668 8.72152 59.7668 9.66111C59.7668 11.1645 58.5534 11.3524 46.7001 11.3524C34.8468 11.3524 33.6334 11.1645 33.6334 9.66111C33.6334 8.72152 34.2868 7.03024 35.1268 5.90273C36.4334 4.02353 37.2734 3.83561 46.7001 3.83561C56.1268 3.83561 56.9668 4.02353 58.2734 5.90273ZM68.1668 20.2786V25.4464H46.7001H25.2334V20.2786V15.1108H46.7001H68.1668V20.2786Z" fill="black"/>
<path d="M12.7267 32.1175C10.86 33.6208 10.3 34.8423 10.3 37.6611C10.3 41.0437 11.0467 41.8893 24.6734 55.0437C42.0334 71.5806 44.5534 73.6477 56.2201 79.943C68.0734 86.2383 68.6334 85.2987 60.2334 72.0504C55.0067 63.7819 51.8334 60.0235 40.3534 49.2182C18.14 28.1712 17.86 27.9833 12.7267 32.1175ZM20.66 35.688L22.9 37.4732L20.1 40.4799L17.3 43.3927L15.2467 40.9497C12.7267 38.0369 12.6334 37.2853 14.5934 35.4061C16.46 33.4329 18.0467 33.5269 20.66 35.688ZM29.34 43.8624C31.3934 45.8356 36.9 50.9094 41.38 55.3255L49.5934 63.4061L46.98 65.943L44.3667 68.5739L32.5134 57.2987L20.66 45.9296L22.62 43.2047C23.74 41.7014 24.86 40.4799 25.0467 40.4799C25.3267 40.4799 27.1934 41.9833 29.34 43.8624ZM53.98 68.8557C54.5401 70.0772 55.94 72.4262 57.06 74.1175L59.0201 77.2182L53.42 74.1175L47.7267 71.0168L49.6867 68.8557C50.8067 67.7282 51.9267 66.7886 52.3 66.7886C52.6734 66.7886 53.42 67.7282 53.98 68.8557Z" fill="black"/>
<path d="M57.1534 45.8356L57.4334 58.802L69.0067 59.0839C76.6601 59.2718 80.9534 58.9899 81.7934 58.2382C83.5667 56.7349 83.5667 48.5604 81.7001 47.057C80.1134 45.7416 79.5534 46.5872 79.1801 51.755L78.9001 55.0436L69.8467 55.3255L60.7001 55.6074V46.1174V36.7215H70.8734C78.2467 36.7215 81.3267 36.3456 82.0734 35.5C82.6334 34.7483 82.8201 33.9027 82.4467 33.6208C82.1667 33.245 76.2867 32.9631 69.3801 32.9631H56.8734L57.1534 45.8356Z" fill="black"/>
<path d="M76.5668 42.3591C73.7668 44.896 70.9668 47.0571 70.5001 47.0571C69.9401 47.0571 68.7268 45.7417 67.8868 44.2383C66.0201 41.1376 64.6201 40.6678 63.8735 42.7349C63.4068 44.0504 67.2335 51.0034 69.0068 52.2249C70.2201 52.9766 85.1535 40.4799 84.6868 39.1645C83.9401 36.9094 81.4201 37.943 76.5668 42.3591Z" fill="black"/>
<path d="M97.3801 76.7484C87.3001 81.7282 88.7934 98.2651 99.5267 101.554C101.953 102.211 101.673 102.305 97.6601 102.399C91.6867 102.493 85.5267 105.5 83.1001 109.446C81.7001 111.889 81.2334 114.144 81.2334 119.782V126.923L103.913 126.735L126.5 126.453L126.78 121.285C127.433 110.104 122.207 103.809 111.38 102.587C107.927 102.117 106.06 101.742 107.273 101.648C110.447 101.46 116.42 95.0705 117.167 91.0302C118.007 86.3322 115.02 79.6611 110.913 77.1242C107.18 74.8692 101.487 74.6812 97.3801 76.7484ZM109.98 81.3524C113.62 84.3591 114.46 88.1175 112.593 92.5336C109.887 99.2047 101.3 100.426 96.6334 94.7886C88.9801 85.6745 100.927 73.6477 109.98 81.3524ZM117.353 108.131C121.087 110.386 123.233 114.426 123.233 119.406V123.164H103.727H84.3134L84.5934 118.373C85.3401 108.319 88.7001 106.252 103.633 106.252C112.593 106.252 114.833 106.534 117.353 108.131Z" fill="black"/>
<path d="M12.3534 83.4194C12.6334 84.9228 14.22 85.1107 27.4734 85.3926C41.7534 85.5805 45.7667 85.0167 44.2734 82.6678C43.9934 82.198 36.62 81.8221 27.94 81.8221C13.2867 81.8221 12.0734 81.9161 12.3534 83.4194Z" fill="black"/>
<path d="M12.3534 97.5134C12.6334 99.1108 14.8734 99.2047 44.8334 99.2047C72.8334 99.2047 77.0334 99.0168 77.0334 97.7953C77.0334 96.5738 72.6467 96.3859 44.5534 96.104C13.9401 95.9161 12.0734 96.0101 12.3534 97.5134Z" fill="black"/>
<path d="M13.3801 109.728C12.7267 109.916 12.1667 110.762 12.1667 111.513C12.1667 112.641 17.3001 112.829 44.8334 112.829C72.0868 112.829 77.5001 112.641 77.5001 111.513C77.5001 110.762 76.8467 109.916 76.0067 109.634C74.2334 108.977 15.0601 108.977 13.3801 109.728Z" fill="black"/>
</svg>
