<svg width="226" height="33" viewBox="0 0 226 33" fill="none" xmlns="http://www.w3.org/2000/svg">
<g filter="url(#filter0_d_8_103)">
<path d="M4.40625 12.5156C4.40625 10.7969 4.63542 9.20312 5.09375 7.73438C5.55208 6.26562 6.23958 4.99479 7.15625 3.92188C8.07292 2.83854 9.22396 1.98958 10.6094 1.375C11.9948 0.760417 13.6094 0.453125 15.4531 0.453125C17.151 0.453125 18.6823 0.760417 20.0469 1.375C21.4115 1.98958 22.5677 2.83854 23.5156 3.92188C24.474 4.99479 25.2083 6.26562 25.7188 7.73438C26.2292 9.20312 26.4844 10.7969 26.4844 12.5156C26.4844 14.224 26.2292 15.8177 25.7188 17.2969C25.2083 18.7656 24.474 20.0417 23.5156 21.125C22.5677 22.1979 21.4115 23.0417 20.0469 23.6562C18.6823 24.2708 17.151 24.5781 15.4531 24.5781C13.6094 24.5781 11.9948 24.2708 10.6094 23.6562C9.22396 23.0417 8.07292 22.1979 7.15625 21.125C6.23958 20.0417 5.55208 18.7656 5.09375 17.2969C4.63542 15.8177 4.40625 14.224 4.40625 12.5156ZM15.4531 20.4219C16.4323 20.4219 17.3073 20.224 18.0781 19.8281C18.849 19.4323 19.5 18.8854 20.0312 18.1875C20.5729 17.4792 20.9844 16.6458 21.2656 15.6875C21.5469 14.7188 21.6875 13.6615 21.6875 12.5156C21.6875 11.3698 21.5469 10.3177 21.2656 9.35938C20.9844 8.39062 20.5729 7.55729 20.0312 6.85938C19.5 6.15104 18.849 5.59896 18.0781 5.20312C17.3073 4.80729 16.4323 4.60938 15.4531 4.60938C14.474 4.60938 13.599 4.80729 12.8281 5.20312C12.0573 5.59896 11.401 6.15104 10.8594 6.85938C10.3281 7.55729 9.91667 8.39062 9.625 9.35938C9.34375 10.3177 9.20312 11.3698 9.20312 12.5156C9.20312 13.6615 9.34375 14.7188 9.625 15.6875C9.91667 16.6458 10.3281 17.4792 10.8594 18.1875C11.401 18.8854 12.0573 19.4323 12.8281 19.8281C13.599 20.224 14.474 20.4219 15.4531 20.4219ZM30.1406 1.03125H48.7656V24H43.9688V4.98438H34.9531V24H30.1406V1.03125ZM76.3438 4.98438H69.6094L69.625 8.45312C69.6354 10.5469 69.5885 12.3958 69.4844 14C69.3906 15.5938 69.2344 16.9844 69.0156 18.1719C68.8073 19.349 68.5365 20.3385 68.2031 21.1406C67.8802 21.9427 67.4948 22.5885 67.0469 23.0781C66.599 23.5573 66.0885 23.901 65.5156 24.1094C64.9427 24.3177 64.3125 24.4219 63.625 24.4219C63.0625 24.4219 62.5625 24.3854 62.125 24.3125C61.6979 24.25 61.2708 24.1302 60.8438 23.9531L60.8281 19.5625C60.974 19.6354 61.125 19.6979 61.2812 19.75C61.4479 19.7917 61.6094 19.8281 61.7656 19.8594C61.9219 19.8802 62.0625 19.8958 62.1875 19.9062C62.3229 19.9167 62.4271 19.9219 62.5 19.9219C62.7812 19.9219 63.0417 19.8854 63.2812 19.8125C63.5312 19.7292 63.75 19.5573 63.9375 19.2969C64.1354 19.0365 64.3073 18.6615 64.4531 18.1719C64.599 17.6823 64.7188 17.0312 64.8125 16.2188C64.9167 15.4062 64.9896 14.401 65.0312 13.2031C65.0833 12.0052 65.1094 10.5729 65.1094 8.90625V1.03125H81.1406V24H76.3438V4.98438ZM84.4062 12.5156C84.4062 10.7969 84.6354 9.20312 85.0938 7.73438C85.5521 6.26562 86.2396 4.99479 87.1562 3.92188C88.0729 2.83854 89.224 1.98958 90.6094 1.375C91.9948 0.760417 93.6094 0.453125 95.4531 0.453125C97.151 0.453125 98.6823 0.760417 100.047 1.375C101.411 1.98958 102.568 2.83854 103.516 3.92188C104.474 4.99479 105.208 6.26562 105.719 7.73438C106.229 9.20312 106.484 10.7969 106.484 12.5156C106.484 14.224 106.229 15.8177 105.719 17.2969C105.208 18.7656 104.474 20.0417 103.516 21.125C102.568 22.1979 101.411 23.0417 100.047 23.6562C98.6823 24.2708 97.151 24.5781 95.4531 24.5781C93.6094 24.5781 91.9948 24.2708 90.6094 23.6562C89.224 23.0417 88.0729 22.1979 87.1562 21.125C86.2396 20.0417 85.5521 18.7656 85.0938 17.2969C84.6354 15.8177 84.4062 14.224 84.4062 12.5156ZM95.4531 20.4219C96.4323 20.4219 97.3073 20.224 98.0781 19.8281C98.849 19.4323 99.5 18.8854 100.031 18.1875C100.573 17.4792 100.984 16.6458 101.266 15.6875C101.547 14.7188 101.688 13.6615 101.688 12.5156C101.688 11.3698 101.547 10.3177 101.266 9.35938C100.984 8.39062 100.573 7.55729 100.031 6.85938C99.5 6.15104 98.849 5.59896 98.0781 5.20312C97.3073 4.80729 96.4323 4.60938 95.4531 4.60938C94.474 4.60938 93.599 4.80729 92.8281 5.20312C92.0573 5.59896 91.401 6.15104 90.8594 6.85938C90.3281 7.55729 89.9167 8.39062 89.625 9.35938C89.3438 10.3177 89.2031 11.3698 89.2031 12.5156C89.2031 13.6615 89.3438 14.7188 89.625 15.6875C89.9167 16.6458 90.3281 17.4792 90.8594 18.1875C91.401 18.8854 92.0573 19.4323 92.8281 19.8281C93.599 20.224 94.474 20.4219 95.4531 20.4219ZM110.141 1.03125H128.766V24H123.969V4.98438H114.953V24H110.141V1.03125ZM133.656 1.03125H144.922C145.859 1.03125 146.682 1.11979 147.391 1.29688C148.109 1.47396 148.729 1.71354 149.25 2.01562C149.771 2.31771 150.208 2.66667 150.562 3.0625C150.917 3.45833 151.198 3.875 151.406 4.3125C151.615 4.73958 151.76 5.17708 151.844 5.625C151.938 6.07292 151.984 6.5 151.984 6.90625C151.984 7.48958 151.932 8.01562 151.828 8.48438C151.724 8.94271 151.557 9.36458 151.328 9.75C151.109 10.125 150.818 10.4688 150.453 10.7812C150.099 11.0833 149.672 11.3594 149.172 11.6094C149.943 11.901 150.562 12.2604 151.031 12.6875C151.5 13.1146 151.859 13.5781 152.109 14.0781C152.359 14.5677 152.526 15.0781 152.609 15.6094C152.693 16.1302 152.734 16.6354 152.734 17.125C152.734 18.2396 152.531 19.224 152.125 20.0781C151.719 20.9323 151.146 21.651 150.406 22.2344C149.667 22.8073 148.766 23.2448 147.703 23.5469C146.651 23.849 145.479 24 144.188 24H133.656V1.03125ZM138.266 20.0312H144.25C144.781 20.0312 145.271 19.9688 145.719 19.8438C146.167 19.7188 146.552 19.5312 146.875 19.2812C147.208 19.0208 147.464 18.6979 147.641 18.3125C147.828 17.9167 147.922 17.4531 147.922 16.9219C147.922 16.2552 147.812 15.724 147.594 15.3281C147.375 14.9219 147.083 14.6094 146.719 14.3906C146.365 14.1719 145.958 14.0312 145.5 13.9688C145.052 13.8958 144.594 13.8594 144.125 13.8594H138.266V20.0312ZM138.266 10.0781H144.188C144.604 10.0781 145.005 10.0312 145.391 9.9375C145.776 9.84375 146.115 9.69271 146.406 9.48438C146.708 9.26562 146.948 8.98958 147.125 8.65625C147.302 8.32292 147.391 7.92188 147.391 7.45312C147.391 6.96354 147.307 6.5625 147.141 6.25C146.984 5.92708 146.766 5.67188 146.484 5.48438C146.203 5.29688 145.875 5.16667 145.5 5.09375C145.125 5.02083 144.729 4.98438 144.312 4.98438H138.266V10.0781ZM163.016 1.03125H168.5L176.625 24H171.406L169.938 19.2656H161.453L159.859 24H154.797L163.016 1.03125ZM162.734 15.2969H168.594L165.734 6.20312H165.672L162.734 15.2969ZM179.516 1.03125H198.141V24H193.344V4.98438H184.328V24H179.516V1.03125ZM203.031 1.03125H219.75V4.98438H207.828V10.0781H213.531C213.875 10.0781 214.318 10.0885 214.859 10.1094C215.401 10.1302 215.974 10.2083 216.578 10.3438C217.193 10.4688 217.807 10.6719 218.422 10.9531C219.047 11.2344 219.609 11.6354 220.109 12.1562C220.609 12.6667 221.016 13.3229 221.328 14.125C221.641 14.9167 221.797 15.8958 221.797 17.0625C221.797 18.2188 221.641 19.1927 221.328 19.9844C221.016 20.776 220.615 21.4323 220.125 21.9531C219.646 22.4635 219.109 22.8594 218.516 23.1406C217.922 23.4115 217.344 23.6146 216.781 23.75C216.229 23.875 215.719 23.9479 215.25 23.9688C214.792 23.9896 214.453 24 214.234 24H203.031V1.03125ZM207.828 20.0312H213.016C213.453 20.0312 213.901 20 214.359 19.9375C214.828 19.875 215.255 19.7396 215.641 19.5312C216.036 19.3229 216.359 19.0156 216.609 18.6094C216.859 18.1927 216.984 17.6406 216.984 16.9531C216.984 16.2344 216.859 15.6719 216.609 15.2656C216.37 14.849 216.052 14.5365 215.656 14.3281C215.26 14.1198 214.812 13.9896 214.312 13.9375C213.823 13.8854 213.328 13.8594 212.828 13.8594H207.828V20.0312Z" fill="#D7E8D1"/>
<path d="M5.09375 7.73438L4.13915 7.43649L5.09375 7.73438ZM7.15625 3.92188L7.91656 4.57146L7.91964 4.56782L7.15625 3.92188ZM23.5156 3.92188L22.763 4.58041L22.7698 4.58803L23.5156 3.92188ZM25.7188 17.2969L26.6633 17.6251L26.6641 17.6231L25.7188 17.2969ZM23.5156 21.125L22.7666 20.4624L22.7662 20.4629L23.5156 21.125ZM7.15625 21.125L6.39285 21.771L6.39595 21.7746L7.15625 21.125ZM5.09375 17.2969L4.13855 17.5929L4.13915 17.5948L5.09375 17.2969ZM18.0781 19.8281L17.6213 18.9386L18.0781 19.8281ZM20.0312 18.1875L19.2369 17.58L19.2355 17.5818L20.0312 18.1875ZM21.2656 15.6875L22.2252 15.9691L22.226 15.9663L21.2656 15.6875ZM21.2656 9.35938L20.3053 9.63819L20.3061 9.64098L21.2656 9.35938ZM20.0312 6.85938L19.2313 7.45938L19.2362 7.46598L19.2413 7.4725L20.0312 6.85938ZM10.8594 6.85938L10.065 6.25192L10.0637 6.25369L10.8594 6.85938ZM9.625 9.35938L8.66743 9.07108L8.66547 9.07777L9.625 9.35938ZM9.625 15.6875L8.66457 15.9663L8.66833 15.9787L9.625 15.6875ZM10.8594 18.1875L10.0594 18.7875L10.0643 18.7941L10.0694 18.8006L10.8594 18.1875ZM5.40625 12.5156C5.40625 10.8862 5.6234 9.39403 6.04835 8.03226L4.13915 7.43649C3.64743 9.01222 3.40625 10.7075 3.40625 12.5156H5.40625ZM6.04835 8.03226C6.47005 6.68092 7.09544 5.53252 7.91655 4.57145L6.39595 3.2723C5.38373 4.45706 4.63412 5.85033 4.13915 7.43649L6.04835 8.03226ZM7.91964 4.56782C8.73222 3.60749 9.75788 2.84671 11.0149 2.28909L10.2039 0.460905C8.69004 1.13246 7.41361 2.0696 6.39286 3.27593L7.91964 4.56782ZM11.0149 2.28909C12.2481 1.74203 13.7195 1.45312 15.4531 1.45312V-0.546875C13.4993 -0.546875 11.7415 -0.221195 10.2039 0.460905L11.0149 2.28909ZM15.4531 1.45312C17.0285 1.45312 18.417 1.73769 19.6362 2.28679L20.4575 0.463209C18.9475 -0.216859 17.2736 -0.546875 15.4531 -0.546875V1.45312ZM19.6362 2.28679C20.8753 2.84485 21.9134 3.60933 22.763 4.58038L24.2682 3.26337C23.222 2.06775 21.9476 1.13432 20.4575 0.463209L19.6362 2.28679ZM22.7698 4.58803C23.6333 5.55481 24.3035 6.70836 24.7742 8.06264L26.6633 7.40611C26.1131 5.82289 25.3146 4.43477 24.2614 3.25572L22.7698 4.58803ZM24.7742 8.06264C25.2442 9.41531 25.4844 10.8969 25.4844 12.5156H27.4844C27.4844 10.6968 27.2141 8.99094 26.6633 7.40611L24.7742 8.06264ZM25.4844 12.5156C25.4844 14.1231 25.2445 15.6056 24.7734 16.9707L26.6641 17.6231C27.2139 16.0298 27.4844 14.3248 27.4844 12.5156H25.4844ZM24.7742 16.9686C24.3033 18.3236 23.6323 19.4839 22.7666 20.4624L24.2646 21.7876C25.3156 20.5995 26.1134 19.2077 26.6633 17.6251L24.7742 16.9686ZM22.7662 20.4629C21.9165 21.4247 20.8775 22.1854 19.6362 22.7445L20.4575 24.568C21.9455 23.8979 23.2189 22.9712 24.265 21.7871L22.7662 20.4629ZM19.6362 22.7445C18.417 23.2936 17.0285 23.5781 15.4531 23.5781V25.5781C17.2736 25.5781 18.9475 25.2481 20.4575 24.568L19.6362 22.7445ZM15.4531 23.5781C13.7195 23.5781 12.2481 23.2892 11.0149 22.7422L10.2039 24.5703C11.7415 25.2524 13.4993 25.5781 15.4531 25.5781V23.5781ZM11.0149 22.7422C9.7557 22.1836 8.72913 21.4265 7.91655 20.4754L6.39595 21.7746C7.41671 22.9693 8.69222 23.8998 10.2039 24.5703L11.0149 22.7422ZM7.91964 20.4791C7.09638 19.5061 6.47024 18.3509 6.04835 16.999L4.13915 17.5948C4.63393 19.1803 5.38279 20.5772 6.39286 21.7709L7.91964 20.4791ZM6.04895 17.0009C5.6232 15.6269 5.40625 14.1339 5.40625 12.5156H3.40625C3.40625 14.314 3.64763 16.0085 4.13855 17.5929L6.04895 17.0009ZM15.4531 21.4219C16.5703 21.4219 17.6053 21.1951 18.5349 20.7177L17.6213 18.9386C17.0093 19.2529 16.2943 19.4219 15.4531 19.4219V21.4219ZM18.5349 20.7177C19.4402 20.2528 20.2065 19.6083 20.827 18.7932L19.2355 17.5818C18.7935 18.1625 18.2578 18.6117 17.6213 18.9386L18.5349 20.7177ZM20.8256 18.795C21.4503 17.9781 21.9135 17.0312 22.2252 15.9691L20.3061 15.4059C20.0553 16.2605 19.6955 16.9803 19.2369 17.58L20.8256 18.795ZM22.226 15.9663C22.5368 14.8956 22.6875 13.7432 22.6875 12.5156H20.6875C20.6875 13.5797 20.5569 14.5419 20.3053 15.4087L22.226 15.9663ZM22.6875 12.5156C22.6875 11.2882 22.5369 10.1399 22.2252 9.07777L20.3061 9.64098C20.5569 10.4956 20.6875 11.4514 20.6875 12.5156H22.6875ZM22.226 9.08056C21.9145 8.00766 21.4505 7.05697 20.8212 6.24625L19.2413 7.4725C19.6954 8.05761 20.0543 8.77359 20.3053 9.63819L22.226 9.08056ZM20.8312 6.25937C20.2111 5.43248 19.4436 4.78019 18.5349 4.31356L17.6213 6.09269C18.2543 6.41772 18.7889 6.8696 19.2313 7.45938L20.8312 6.25937ZM18.5349 4.31356C17.6053 3.83619 16.5703 3.60938 15.4531 3.60938V5.60938C16.2943 5.60938 17.0093 5.7784 17.6213 6.09269L18.5349 4.31356ZM15.4531 3.60938C14.3359 3.60938 13.3009 3.83619 12.3713 4.31356L13.2849 6.09269C13.897 5.7784 14.612 5.60938 15.4531 5.60938V3.60938ZM12.3713 4.31356C11.4645 4.77921 10.6942 5.42919 10.065 6.25192L11.6537 7.46683C12.1079 6.87289 12.6501 6.41871 13.2849 6.09269L12.3713 4.31356ZM10.0637 6.25369C9.4497 7.06028 8.98842 8.00503 8.66746 9.07108L10.5825 9.64767C10.8449 8.77622 11.2065 8.05431 11.6551 7.46506L10.0637 6.25369ZM8.66547 9.07777C8.35377 10.1399 8.20312 11.2882 8.20312 12.5156H10.2031C10.2031 11.4514 10.3337 10.4956 10.5845 9.64098L8.66547 9.07777ZM8.20312 12.5156C8.20312 13.7432 8.35381 14.8956 8.66465 15.9663L10.5853 15.4087C10.3337 14.5419 10.2031 13.5797 10.2031 12.5156H8.20312ZM8.66833 15.9787C8.98946 17.0338 9.44981 17.9747 10.0594 18.7875L11.6594 17.5875C11.2064 16.9836 10.8439 16.2579 10.5817 15.3963L8.66833 15.9787ZM10.0694 18.8006C10.6988 19.6116 11.468 20.2538 12.3713 20.7177L13.2849 18.9386C12.6466 18.6108 12.1033 18.1592 11.6494 17.5744L10.0694 18.8006ZM12.3713 20.7177C13.3009 21.1951 14.3359 21.4219 15.4531 21.4219V19.4219C14.612 19.4219 13.897 19.2529 13.2849 18.9386L12.3713 20.7177ZM30.1406 1.03125V0.03125H29.1406V1.03125H30.1406ZM48.7656 1.03125H49.7656V0.03125H48.7656V1.03125ZM48.7656 24V25H49.7656V24H48.7656ZM43.9688 24H42.9688V25H43.9688V24ZM43.9688 4.98438H44.9688V3.98438H43.9688V4.98438ZM34.9531 4.98438V3.98438H33.9531V4.98438H34.9531ZM34.9531 24V25H35.9531V24H34.9531ZM30.1406 24H29.1406V25H30.1406V24ZM30.1406 2.03125H48.7656V0.03125H30.1406V2.03125ZM47.7656 1.03125V24H49.7656V1.03125H47.7656ZM48.7656 23H43.9688V25H48.7656V23ZM44.9688 24V4.98438H42.9688V24H44.9688ZM43.9688 3.98438H34.9531V5.98438H43.9688V3.98438ZM33.9531 4.98438V24H35.9531V4.98438H33.9531ZM34.9531 23H30.1406V25H34.9531V23ZM31.1406 24V1.03125H29.1406V24H31.1406ZM76.3438 4.98438H77.3438V3.98438H76.3438V4.98438ZM69.6094 4.98438V3.98438H68.6049L68.6094 4.98888L69.6094 4.98438ZM69.625 8.45312L68.625 8.45763L68.625 8.4581L69.625 8.45312ZM69.4844 14L68.4865 13.9352L68.4861 13.9413L69.4844 14ZM69.0156 18.1719L68.0322 17.9907L68.0309 17.9976L69.0156 18.1719ZM68.2031 21.1406L67.2796 20.7568L67.2755 20.7672L68.2031 21.1406ZM67.0469 23.0781L67.7774 23.761L67.7847 23.7531L67.0469 23.0781ZM62.125 24.3125L62.2894 23.3261L62.2796 23.3245L62.2698 23.323L62.125 24.3125ZM60.8438 23.9531L59.8438 23.9567L59.8461 24.622L60.4607 24.8769L60.8438 23.9531ZM60.8281 19.5625L61.2753 18.6681L59.8223 17.9416L59.8281 19.5661L60.8281 19.5625ZM61.2812 19.75L60.965 20.6987L61.0015 20.7108L61.0387 20.7201L61.2812 19.75ZM61.7656 19.8594L61.5695 20.84L61.6013 20.8463L61.6335 20.8506L61.7656 19.8594ZM62.1875 19.9062L62.1045 20.9028L62.1108 20.9033L62.1875 19.9062ZM63.2812 19.8125L63.5724 20.7692L63.585 20.7653L63.5975 20.7612L63.2812 19.8125ZM63.9375 19.2969L63.1413 18.6918L63.1335 18.7021L63.126 18.7126L63.9375 19.2969ZM64.8125 16.2188L63.8205 16.0916L63.8191 16.1041L64.8125 16.2188ZM65.0312 13.2031L64.0322 13.1597L64.0319 13.1684L65.0312 13.2031ZM65.1094 1.03125V0.03125H64.1094V1.03125H65.1094ZM81.1406 1.03125H82.1406V0.03125H81.1406V1.03125ZM81.1406 24V25H82.1406V24H81.1406ZM76.3438 24H75.3438V25H76.3438V24ZM76.3438 3.98438H69.6094V5.98438H76.3438V3.98438ZM68.6094 4.98888L68.625 8.45763L70.625 8.44862L70.6094 4.97987L68.6094 4.98888ZM68.625 8.4581C68.6353 10.5351 68.5888 12.36 68.4865 13.9352L70.4823 14.0648C70.5883 12.4317 70.6355 10.5587 70.625 8.44815L68.625 8.4581ZM68.4861 13.9413C68.3941 15.5062 68.2415 16.8542 68.0322 17.9907L69.9991 18.353C70.2272 17.1146 70.3872 15.6813 70.4827 14.0587L68.4861 13.9413ZM68.0309 17.9976C67.8309 19.1276 67.5768 20.042 67.2797 20.7569L69.1266 21.5244C69.4961 20.6351 69.7837 19.5703 70.0003 18.3462L68.0309 17.9976ZM67.2755 20.7672C66.9844 21.4901 66.6558 22.0241 66.3091 22.4031L67.7847 23.7531C68.3338 23.153 68.776 22.3953 69.1308 21.5141L67.2755 20.7672ZM66.3163 22.3952C65.9676 22.7683 65.5877 23.0191 65.1739 23.1696L65.8574 25.0492C66.5894 24.783 67.2303 24.3463 67.7774 23.761L66.3163 22.3952ZM65.1739 23.1696C64.7236 23.3333 64.2107 23.4219 63.625 23.4219V25.4219C64.4143 25.4219 65.1619 25.3021 65.8574 25.0492L65.1739 23.1696ZM63.625 23.4219C63.1037 23.4219 62.6604 23.3879 62.2894 23.3261L61.9606 25.2989C62.4646 25.3829 63.0213 25.4219 63.625 25.4219V23.4219ZM62.2698 23.323C61.9301 23.2733 61.5829 23.177 61.2268 23.0294L60.4607 24.8769C60.9588 25.0834 61.4657 25.2267 61.9802 25.302L62.2698 23.323ZM61.8437 23.9496L61.8281 19.5589L59.8281 19.5661L59.8438 23.9567L61.8437 23.9496ZM60.3809 20.4569C60.5695 20.5512 60.7643 20.6318 60.965 20.6987L61.5975 18.8013C61.4857 18.764 61.3784 18.7196 61.2753 18.6681L60.3809 20.4569ZM61.0387 20.7201C61.2196 20.7654 61.3966 20.8054 61.5695 20.84L61.9617 18.8788C61.8222 18.8509 61.6762 18.818 61.5238 18.7799L61.0387 20.7201ZM61.6335 20.8506C61.8021 20.8731 61.9595 20.8907 62.1045 20.9028L62.2705 18.9097C62.1655 18.9009 62.0416 18.8873 61.8978 18.8681L61.6335 20.8506ZM62.1108 20.9033C62.254 20.9143 62.3884 20.9219 62.5 20.9219V18.9219C62.4658 18.9219 62.3918 18.919 62.2642 18.9092L62.1108 20.9033ZM62.5 20.9219C62.8679 20.9219 63.2276 20.8741 63.5724 20.7692L62.9901 18.8558C62.8557 18.8967 62.6946 18.9219 62.5 18.9219V20.9219ZM63.5975 20.7612C64.0868 20.5981 64.466 20.2742 64.749 19.8812L63.126 18.7126C63.034 18.8403 62.9757 18.8603 62.965 18.8638L63.5975 20.7612ZM64.7337 19.902C65.0336 19.5073 65.2484 19.0048 65.4115 18.4574L63.4947 17.8864C63.3662 18.3181 63.2372 18.5656 63.1413 18.6918L64.7337 19.902ZM65.4115 18.4574C65.5808 17.889 65.7089 17.1737 65.8059 16.3334L63.8191 16.1041C63.7286 16.8888 63.6171 17.4756 63.4947 17.8864L65.4115 18.4574ZM65.8044 16.3459C65.9138 15.4923 65.9883 14.454 66.0306 13.2379L64.0319 13.1684C63.9908 14.3481 63.9195 15.3202 63.8206 16.0916L65.8044 16.3459ZM66.0303 13.2466C66.0832 12.0298 66.1094 10.5823 66.1094 8.90625H64.1094C64.1094 10.5635 64.0835 11.9806 64.0322 13.1597L66.0303 13.2466ZM66.1094 8.90625V1.03125H64.1094V8.90625H66.1094ZM65.1094 2.03125H81.1406V0.03125H65.1094V2.03125ZM80.1406 1.03125V24H82.1406V1.03125H80.1406ZM81.1406 23H76.3438V25H81.1406V23ZM77.3438 24V4.98438H75.3438V24H77.3438ZM85.0938 7.73438L84.1392 7.43649L85.0938 7.73438ZM87.1562 3.92188L87.9166 4.57146L87.9196 4.56782L87.1562 3.92188ZM103.516 3.92188L102.763 4.58041L102.77 4.58803L103.516 3.92188ZM105.719 17.2969L106.663 17.6251L106.664 17.6231L105.719 17.2969ZM103.516 21.125L102.767 20.4624L102.766 20.4629L103.516 21.125ZM87.1562 21.125L86.3929 21.771L86.396 21.7746L87.1562 21.125ZM85.0938 17.2969L84.1385 17.5929L84.1392 17.5948L85.0938 17.2969ZM98.0781 19.8281L97.6213 18.9386L98.0781 19.8281ZM100.031 18.1875L99.2369 17.58L99.2355 17.5818L100.031 18.1875ZM101.266 15.6875L102.225 15.9691L102.226 15.9663L101.266 15.6875ZM101.266 9.35938L100.305 9.63819L100.306 9.64098L101.266 9.35938ZM100.031 6.85938L99.2312 7.45938L99.2362 7.46598L99.2413 7.4725L100.031 6.85938ZM90.8594 6.85938L90.065 6.25192L90.0637 6.25369L90.8594 6.85938ZM89.625 9.35938L88.6674 9.07108L88.6655 9.07777L89.625 9.35938ZM89.625 15.6875L88.6646 15.9663L88.6683 15.9787L89.625 15.6875ZM90.8594 18.1875L90.0594 18.7875L90.0643 18.7941L90.0694 18.8006L90.8594 18.1875ZM85.4062 12.5156C85.4062 10.8862 85.6234 9.39403 86.0483 8.03226L84.1392 7.43649C83.6474 9.01222 83.4062 10.7075 83.4062 12.5156H85.4062ZM86.0483 8.03226C86.47 6.68092 87.0954 5.53252 87.9165 4.57145L86.396 3.2723C85.3837 4.45706 84.6341 5.85033 84.1392 7.43649L86.0483 8.03226ZM87.9196 4.56782C88.7322 3.60749 89.7579 2.84671 91.0149 2.28909L90.2039 0.460905C88.69 1.13246 87.4136 2.0696 86.3929 3.27593L87.9196 4.56782ZM91.0149 2.28909C92.2481 1.74203 93.7195 1.45312 95.4531 1.45312V-0.546875C93.4993 -0.546875 91.7415 -0.221195 90.2039 0.460905L91.0149 2.28909ZM95.4531 1.45312C97.0285 1.45312 98.417 1.73769 99.6362 2.28679L100.458 0.463209C98.9475 -0.216859 97.2736 -0.546875 95.4531 -0.546875V1.45312ZM99.6362 2.28679C100.875 2.84485 101.913 3.60933 102.763 4.58038L104.268 3.26337C103.222 2.06775 101.948 1.13432 100.458 0.463209L99.6362 2.28679ZM102.77 4.58803C103.633 5.55481 104.304 6.70836 104.774 8.06264L106.663 7.40611C106.113 5.82289 105.315 4.43477 104.261 3.25572L102.77 4.58803ZM104.774 8.06264C105.244 9.41531 105.484 10.8969 105.484 12.5156H107.484C107.484 10.6968 107.214 8.99094 106.663 7.40611L104.774 8.06264ZM105.484 12.5156C105.484 14.1231 105.244 15.6056 104.773 16.9707L106.664 17.6231C107.214 16.0298 107.484 14.3248 107.484 12.5156H105.484ZM104.774 16.9686C104.303 18.3236 103.632 19.4839 102.767 20.4624L104.265 21.7876C105.316 20.5995 106.113 19.2077 106.663 17.6251L104.774 16.9686ZM102.766 20.4629C101.916 21.4247 100.877 22.1854 99.6362 22.7445L100.458 24.568C101.945 23.8979 103.219 22.9712 104.265 21.7871L102.766 20.4629ZM99.6362 22.7445C98.417 23.2936 97.0285 23.5781 95.4531 23.5781V25.5781C97.2736 25.5781 98.9475 25.2481 100.458 24.568L99.6362 22.7445ZM95.4531 23.5781C93.7195 23.5781 92.2481 23.2892 91.0149 22.7422L90.2039 24.5703C91.7415 25.2524 93.4993 25.5781 95.4531 25.5781V23.5781ZM91.0149 22.7422C89.7557 22.1836 88.7291 21.4265 87.9165 20.4754L86.396 21.7746C87.4167 22.9693 88.6922 23.8998 90.2039 24.5703L91.0149 22.7422ZM87.9196 20.4791C87.0964 19.5061 86.4702 18.3509 86.0483 16.999L84.1392 17.5948C84.6339 19.1803 85.3828 20.5772 86.3929 21.7709L87.9196 20.4791ZM86.0489 17.0009C85.6232 15.6269 85.4062 14.1339 85.4062 12.5156H83.4062C83.4062 14.314 83.6476 16.0085 84.1386 17.5929L86.0489 17.0009ZM95.4531 21.4219C96.5703 21.4219 97.6053 21.1951 98.5349 20.7177L97.6213 18.9386C97.0093 19.2529 96.2943 19.4219 95.4531 19.4219V21.4219ZM98.5349 20.7177C99.4402 20.2528 100.206 19.6083 100.827 18.7932L99.2355 17.5818C98.7935 18.1625 98.2578 18.6117 97.6213 18.9386L98.5349 20.7177ZM100.826 18.795C101.45 17.9781 101.913 17.0312 102.225 15.9691L100.306 15.4059C100.055 16.2605 99.6955 16.9803 99.2369 17.58L100.826 18.795ZM102.226 15.9663C102.537 14.8956 102.688 13.7432 102.688 12.5156H100.688C100.688 13.5797 100.557 14.5419 100.305 15.4087L102.226 15.9663ZM102.688 12.5156C102.688 11.2882 102.537 10.1399 102.225 9.07777L100.306 9.64098C100.557 10.4956 100.688 11.4514 100.688 12.5156H102.688ZM102.226 9.08056C101.914 8.00766 101.45 7.05697 100.821 6.24625L99.2413 7.4725C99.6954 8.05761 100.054 8.77359 100.305 9.63819L102.226 9.08056ZM100.831 6.25937C100.211 5.43248 99.4436 4.78019 98.5349 4.31356L97.6213 6.09269C98.2543 6.41772 98.7889 6.8696 99.2312 7.45938L100.831 6.25937ZM98.5349 4.31356C97.6053 3.83619 96.5703 3.60938 95.4531 3.60938V5.60938C96.2943 5.60938 97.0093 5.7784 97.6213 6.09269L98.5349 4.31356ZM95.4531 3.60938C94.3359 3.60938 93.3009 3.83619 92.3713 4.31356L93.2849 6.09269C93.897 5.7784 94.612 5.60938 95.4531 5.60938V3.60938ZM92.3713 4.31356C91.4645 4.77921 90.6942 5.42919 90.065 6.25192L91.6537 7.46683C92.1079 6.87289 92.6501 6.41871 93.2849 6.09269L92.3713 4.31356ZM90.0637 6.25369C89.4497 7.06028 88.9884 8.00503 88.6675 9.07108L90.5825 9.64767C90.8449 8.77622 91.2066 8.05431 91.6551 7.46506L90.0637 6.25369ZM88.6655 9.07777C88.3538 10.1399 88.2031 11.2882 88.2031 12.5156H90.2031C90.2031 11.4514 90.3337 10.4956 90.5845 9.64098L88.6655 9.07777ZM88.2031 12.5156C88.2031 13.7432 88.3538 14.8956 88.6646 15.9663L90.5854 15.4087C90.3337 14.5419 90.2031 13.5797 90.2031 12.5156H88.2031ZM88.6683 15.9787C88.9895 17.0338 89.4498 17.9747 90.0594 18.7875L91.6594 17.5875C91.2064 16.9836 90.8439 16.2579 90.5817 15.3963L88.6683 15.9787ZM90.0694 18.8006C90.6988 19.6116 91.468 20.2538 92.3713 20.7177L93.2849 18.9386C92.6466 18.6108 92.1033 18.1592 91.6494 17.5744L90.0694 18.8006ZM92.3713 20.7177C93.3009 21.1951 94.3359 21.4219 95.4531 21.4219V19.4219C94.612 19.4219 93.897 19.2529 93.2849 18.9386L92.3713 20.7177ZM110.141 1.03125V0.03125H109.141V1.03125H110.141ZM128.766 1.03125H129.766V0.03125H128.766V1.03125ZM128.766 24V25H129.766V24H128.766ZM123.969 24H122.969V25H123.969V24ZM123.969 4.98438H124.969V3.98438H123.969V4.98438ZM114.953 4.98438V3.98438H113.953V4.98438H114.953ZM114.953 24V25H115.953V24H114.953ZM110.141 24H109.141V25H110.141V24ZM110.141 2.03125H128.766V0.03125H110.141V2.03125ZM127.766 1.03125V24H129.766V1.03125H127.766ZM128.766 23H123.969V25H128.766V23ZM124.969 24V4.98438H122.969V24H124.969ZM123.969 3.98438H114.953V5.98438H123.969V3.98438ZM113.953 4.98438V24H115.953V4.98438H113.953ZM114.953 23H110.141V25H114.953V23ZM111.141 24V1.03125H109.141V24H111.141ZM133.656 1.03125V0.03125H132.656V1.03125H133.656ZM147.391 1.29688L147.148 2.26702L147.151 2.26784L147.391 1.29688ZM151.406 4.3125L150.503 4.74245L150.507 4.75092L151.406 4.3125ZM151.844 5.625L150.861 5.80791L150.863 5.81891L150.865 5.82986L151.844 5.625ZM151.828 8.48438L152.803 8.706L152.804 8.70131L151.828 8.48438ZM151.328 9.75L150.469 9.23891L150.464 9.24613L151.328 9.75ZM150.453 10.7812L151.102 11.5421L151.104 11.5405L150.453 10.7812ZM149.172 11.6094L148.725 10.7149L146.682 11.7364L148.818 12.5447L149.172 11.6094ZM152.109 14.0781L151.215 14.5254L151.219 14.5329L152.109 14.0781ZM152.609 15.6094L151.621 15.7643L151.622 15.7674L152.609 15.6094ZM150.406 22.2344L151.019 23.025L151.026 23.0195L150.406 22.2344ZM147.703 23.5469L147.43 22.585L147.427 22.5857L147.703 23.5469ZM133.656 24H132.656V25H133.656V24ZM138.266 20.0312H137.266V21.0312H138.266V20.0312ZM146.875 19.2812L147.487 20.072L147.491 20.0693L146.875 19.2812ZM147.641 18.3125L146.737 17.8844L146.732 17.895L147.641 18.3125ZM147.594 15.3281L146.713 15.8023L146.719 15.8118L147.594 15.3281ZM146.719 14.3906L146.193 15.2415L146.204 15.2481L146.719 14.3906ZM145.5 13.9688L145.339 14.9558L145.352 14.9578L145.365 14.9596L145.5 13.9688ZM138.266 13.8594V12.8594H137.266V13.8594H138.266ZM138.266 10.0781H137.266V11.0781H138.266V10.0781ZM146.406 9.48438L146.988 10.2981L146.993 10.2943L146.406 9.48438ZM147.125 8.65625L148.008 9.12541L147.125 8.65625ZM147.141 6.25L146.24 6.68556L146.249 6.70325L146.258 6.72059L147.141 6.25ZM138.266 4.98438V3.98438H137.266V4.98438H138.266ZM133.656 2.03125H144.922V0.03125H133.656V2.03125ZM144.922 2.03125C145.799 2.03125 146.538 2.11444 147.148 2.26702L147.633 0.326733C146.827 0.125142 145.919 0.03125 144.922 0.03125V2.03125ZM147.151 2.26784C147.798 2.42722 148.326 2.63558 148.748 2.88066L149.752 1.15059C149.133 0.791501 148.42 0.520696 147.63 0.325911L147.151 2.26784ZM148.748 2.88066C149.19 3.13685 149.542 3.42165 149.817 3.72929L151.308 2.39571C150.875 1.91168 150.352 1.49857 149.752 1.15059L148.748 2.88066ZM149.817 3.72929C150.114 4.06086 150.34 4.39883 150.503 4.74243L152.309 3.88257C152.056 3.35117 151.719 2.85581 151.308 2.39571L149.817 3.72929ZM150.507 4.75092C150.678 5.10052 150.794 5.45231 150.861 5.80791L152.827 5.44209C152.726 4.90185 152.551 4.37865 152.305 3.87408L150.507 4.75092ZM150.865 5.82986C150.946 6.21872 150.984 6.57684 150.984 6.90625H152.984C152.984 6.42316 152.929 5.92711 152.823 5.42014L150.865 5.82986ZM150.984 6.90625C150.984 7.43159 150.937 7.88318 150.852 8.26744L152.804 8.70131C152.927 8.14807 152.984 7.54757 152.984 6.90625H150.984ZM150.853 8.26275C150.771 8.6241 150.642 8.94762 150.469 9.23892L152.188 10.2611C152.473 9.78155 152.677 9.26132 152.803 8.706L150.853 8.26275ZM150.464 9.24613C150.307 9.51504 150.091 9.77448 149.802 10.022L151.104 11.5405C151.544 11.163 151.911 10.735 152.192 10.2539L150.464 9.24613ZM149.804 10.0204C149.522 10.2607 149.166 10.4942 148.725 10.7149L149.619 12.5038C150.178 12.2246 150.675 11.906 151.102 11.5421L149.804 10.0204ZM148.818 12.5447C149.505 12.8044 150.006 13.1058 150.358 13.4267L151.705 11.9483C151.119 11.415 150.381 10.9977 149.526 10.6741L148.818 12.5447ZM150.358 13.4267C150.748 13.7819 151.027 14.1492 151.215 14.5253L153.004 13.6309C152.692 13.007 152.252 12.4472 151.705 11.9483L150.358 13.4267ZM151.219 14.5329C151.422 14.9304 151.555 15.3399 151.621 15.7643L153.597 15.4544C153.497 14.8164 153.297 14.205 153 13.6233L151.219 14.5329ZM151.622 15.7674C151.698 16.2399 151.734 16.6922 151.734 17.125H153.734C153.734 16.5786 153.688 16.0205 153.597 15.4514L151.622 15.7674ZM151.734 17.125C151.734 18.1173 151.554 18.9505 151.222 19.6486L153.028 20.5076C153.509 19.4974 153.734 18.3619 153.734 17.125H151.734ZM151.222 19.6486C150.881 20.3646 150.405 20.9615 149.787 21.4492L151.026 23.0195C151.886 22.3406 152.556 21.5 153.028 20.5076L151.222 19.6486ZM149.794 21.4438C149.172 21.9257 148.391 22.3117 147.43 22.585L147.977 24.5088C149.14 24.1779 150.162 23.6889 151.019 23.0249L149.794 21.4438ZM147.427 22.5857C146.479 22.8579 145.402 23 144.188 23V25C145.556 25 146.823 24.84 147.979 24.508L147.427 22.5857ZM144.188 23H133.656V25H144.188V23ZM134.656 24V1.03125H132.656V24H134.656ZM138.266 21.0312H144.25V19.0312H138.266V21.0312ZM144.25 21.0312C144.859 21.0312 145.441 20.9596 145.988 20.8069L145.45 18.8806C145.101 18.9779 144.703 19.0312 144.25 19.0312V21.0312ZM145.988 20.8069C146.543 20.652 147.049 20.4113 147.487 20.072L146.263 18.4905C146.055 18.6512 145.79 18.7855 145.45 18.8806L145.988 20.8069ZM147.491 20.0693C147.95 19.7102 148.306 19.2601 148.549 18.73L146.732 17.895C146.621 18.1357 146.466 18.3314 146.259 18.4932L147.491 20.0693ZM148.544 18.7406C148.807 18.1855 148.922 17.5702 148.922 16.9219H146.922C146.922 17.336 146.849 17.6478 146.737 17.8844L148.544 18.7406ZM148.922 16.9219C148.922 16.1605 148.799 15.4421 148.469 14.8444L146.719 15.8118C146.826 16.0058 146.922 16.3499 146.922 16.9219H148.922ZM148.474 14.854C148.178 14.3033 147.765 13.8523 147.233 13.5331L146.204 15.2481C146.402 15.3665 146.572 15.5404 146.713 15.8022L148.474 14.854ZM147.244 13.5398C146.759 13.2398 146.216 13.0572 145.635 12.9779L145.365 14.9596C145.7 15.0053 145.971 15.1039 146.193 15.2414L147.244 13.5398ZM145.661 12.9817C145.158 12.8999 144.646 12.8594 144.125 12.8594V14.8594C144.542 14.8594 144.946 14.8918 145.339 14.9558L145.661 12.9817ZM144.125 12.8594H138.266V14.8594H144.125V12.8594ZM137.266 13.8594V20.0312H139.266V13.8594H137.266ZM138.266 11.0781H144.188V9.07812H138.266V11.0781ZM144.188 11.0781C144.68 11.0781 145.16 11.0227 145.627 10.9092L145.154 8.96583C144.85 9.03984 144.529 9.07812 144.188 9.07812V11.0781ZM145.627 10.9092C146.123 10.7885 146.581 10.5881 146.987 10.2981L145.825 8.67064C145.648 8.79729 145.429 8.89902 145.154 8.96583L145.627 10.9092ZM146.993 10.2943C147.42 9.98498 147.76 9.59179 148.008 9.12541L146.242 8.18709C146.135 8.38737 145.997 8.54627 145.82 8.67443L146.993 10.2943ZM148.008 9.12541C148.278 8.61675 148.391 8.04655 148.391 7.45312H146.391C146.391 7.7972 146.326 8.02908 146.242 8.18709L148.008 9.12541ZM148.391 7.45312C148.391 6.85892 148.291 6.28146 148.023 5.77941L146.258 6.72059C146.324 6.84354 146.391 7.06816 146.391 7.45312H148.391ZM148.041 5.81444C147.812 5.34113 147.478 4.94492 147.039 4.65232L145.93 6.31643C146.053 6.39883 146.157 6.51303 146.24 6.68556L148.041 5.81444ZM147.039 4.65232C146.634 4.38241 146.179 4.20705 145.691 4.11213L145.309 6.07537C145.571 6.12629 145.772 6.21134 145.93 6.31643L147.039 4.65232ZM145.691 4.11213C145.248 4.02594 144.788 3.98438 144.312 3.98438V5.98438C144.671 5.98438 145.002 6.01572 145.309 6.07537L145.691 4.11213ZM144.312 3.98438H138.266V5.98438H144.312V3.98438ZM137.266 4.98438V10.0781H139.266V4.98438H137.266ZM163.016 1.03125V0.03125H162.311L162.074 0.694345L163.016 1.03125ZM168.5 1.03125L169.443 0.697759L169.207 0.03125H168.5V1.03125ZM176.625 24V25H178.039L177.568 23.6665L176.625 24ZM171.406 24L170.451 24.2963L170.669 25H171.406V24ZM169.938 19.2656L170.893 18.9693L170.674 18.2656H169.938V19.2656ZM161.453 19.2656V18.2656H160.735L160.505 18.9466L161.453 19.2656ZM159.859 24V25H160.578L160.807 24.319L159.859 24ZM154.797 24L153.855 23.6631L153.377 25H154.797V24ZM162.734 15.2969L161.783 14.9895L161.36 16.2969H162.734V15.2969ZM168.594 15.2969V16.2969H169.956L169.548 14.9969L168.594 15.2969ZM165.734 6.20312L166.688 5.90317L166.468 5.20312H165.734V6.20312ZM165.672 6.20312V5.20312H164.944L164.72 5.89574L165.672 6.20312ZM163.016 2.03125H168.5V0.03125H163.016V2.03125ZM167.557 1.36474L175.682 24.3335L177.568 23.6665L169.443 0.697759L167.557 1.36474ZM176.625 23H171.406V25H176.625V23ZM172.361 23.7037L170.893 18.9693L168.982 19.5619L170.451 24.2963L172.361 23.7037ZM169.938 18.2656H161.453V20.2656H169.938V18.2656ZM160.505 18.9466L158.912 23.681L160.807 24.319L162.401 19.5847L160.505 18.9466ZM159.859 23H154.797V25H159.859V23ZM155.738 24.3369L163.957 1.36815L162.074 0.694345L153.855 23.6631L155.738 24.3369ZM162.734 16.2969H168.594V14.2969H162.734V16.2969ZM169.548 14.9969L166.688 5.90317L164.78 6.50308L167.64 15.5968L169.548 14.9969ZM165.734 5.20312H165.672V7.20312H165.734V5.20312ZM164.72 5.89574L161.783 14.9895L163.686 15.6043L166.623 6.51051L164.72 5.89574ZM179.516 1.03125V0.03125H178.516V1.03125H179.516ZM198.141 1.03125H199.141V0.03125H198.141V1.03125ZM198.141 24V25H199.141V24H198.141ZM193.344 24H192.344V25H193.344V24ZM193.344 4.98438H194.344V3.98438H193.344V4.98438ZM184.328 4.98438V3.98438H183.328V4.98438H184.328ZM184.328 24V25H185.328V24H184.328ZM179.516 24H178.516V25H179.516V24ZM179.516 2.03125H198.141V0.03125H179.516V2.03125ZM197.141 1.03125V24H199.141V1.03125H197.141ZM198.141 23H193.344V25H198.141V23ZM194.344 24V4.98438H192.344V24H194.344ZM193.344 3.98438H184.328V5.98438H193.344V3.98438ZM183.328 4.98438V24H185.328V4.98438H183.328ZM184.328 23H179.516V25H184.328V23ZM180.516 24V1.03125H178.516V24H180.516ZM203.031 1.03125V0.03125H202.031V1.03125H203.031ZM219.75 1.03125H220.75V0.03125H219.75V1.03125ZM219.75 4.98438V5.98438H220.75V4.98438H219.75ZM207.828 4.98438V3.98438H206.828V4.98438H207.828ZM207.828 10.0781H206.828V11.0781H207.828V10.0781ZM216.578 10.3438L216.359 11.3195L216.369 11.3217L216.379 11.3237L216.578 10.3438ZM218.422 10.9531L218.006 11.8625L218.012 11.865L218.422 10.9531ZM220.109 12.1562L219.388 12.8488L219.395 12.856L220.109 12.1562ZM221.328 14.125L220.396 14.488L220.398 14.4922L221.328 14.125ZM220.125 21.9531L219.396 21.2682L219.396 21.2687L220.125 21.9531ZM218.516 23.1406L218.931 24.0504L218.937 24.0475L218.944 24.0444L218.516 23.1406ZM216.781 23.75L217.002 24.7254L217.015 24.7222L216.781 23.75ZM215.25 23.9688L215.206 22.9697L215.205 22.9698L215.25 23.9688ZM203.031 24H202.031V25H203.031V24ZM207.828 20.0312H206.828V21.0312H207.828V20.0312ZM214.359 19.9375L214.227 18.9463L214.224 18.9467L214.359 19.9375ZM215.641 19.5312L215.175 18.6463L215.165 18.6515L215.641 19.5312ZM216.609 18.6094L217.461 19.1335L217.467 19.1239L216.609 18.6094ZM216.609 15.2656L215.742 15.7641L215.75 15.777L215.758 15.7897L216.609 15.2656ZM214.312 13.9375L214.207 14.9319L214.209 14.9321L214.312 13.9375ZM207.828 13.8594V12.8594H206.828V13.8594H207.828ZM203.031 2.03125H219.75V0.03125H203.031V2.03125ZM218.75 1.03125V4.98438H220.75V1.03125H218.75ZM219.75 3.98438H207.828V5.98438H219.75V3.98438ZM206.828 4.98438V10.0781H208.828V4.98438H206.828ZM207.828 11.0781H213.531V9.07812H207.828V11.0781ZM213.531 11.0781C213.857 11.0781 214.286 11.0881 214.821 11.1086L214.898 9.11011C214.35 9.08903 213.893 9.07812 213.531 9.07812V11.0781ZM214.821 11.1086C215.294 11.1268 215.806 11.1956 216.359 11.3195L216.797 9.36796C216.142 9.2211 215.508 9.13358 214.898 9.11011L214.821 11.1086ZM216.379 11.3237C216.913 11.4324 217.455 11.6105 218.006 11.8624L218.838 10.0438C218.159 9.73328 217.472 9.50514 216.777 9.36381L216.379 11.3237ZM218.012 11.865C218.514 12.091 218.972 12.4153 219.388 12.8488L220.831 11.4637C220.247 10.8555 219.58 10.3778 218.832 10.0412L218.012 11.865ZM219.395 12.856C219.783 13.2524 220.123 13.7865 220.396 14.488L222.26 13.762C221.908 12.8593 221.435 12.0809 220.824 11.4565L219.395 12.856ZM220.398 14.4922C220.651 15.1323 220.797 15.978 220.797 17.0625H222.797C222.797 15.8137 222.631 14.701 222.258 13.7578L220.398 14.4922ZM220.797 17.0625C220.797 18.1353 220.651 18.9762 220.398 19.6172L222.258 20.3515C222.63 19.4092 222.797 18.3022 222.797 17.0625H220.797ZM220.398 19.6172C220.123 20.3131 219.784 20.8554 219.396 21.2682L220.854 22.638C221.445 22.0092 221.908 21.239 222.258 20.3515L220.398 19.6172ZM219.396 21.2687C218.997 21.6939 218.561 22.0127 218.088 22.2369L218.944 24.0444C219.658 23.7061 220.295 23.2332 220.854 22.6376L219.396 21.2687ZM218.101 22.2308C217.558 22.4784 217.04 22.6591 216.547 22.7778L217.015 24.7222C217.647 24.5701 218.286 24.3445 218.931 24.0504L218.101 22.2308ZM216.56 22.7747C216.055 22.8891 215.604 22.952 215.206 22.9697L215.294 24.9678C215.833 24.9438 216.403 24.8609 217.002 24.7253L216.56 22.7747ZM215.205 22.9698C214.749 22.9905 214.429 23 214.234 23V25C214.477 25 214.835 24.9887 215.295 24.9677L215.205 22.9698ZM214.234 23H203.031V25H214.234V23ZM204.031 24V1.03125H202.031V24H204.031ZM207.828 21.0312H213.016V19.0312H207.828V21.0312ZM213.016 21.0312C213.501 21.0312 213.994 20.9966 214.494 20.9283L214.224 18.9467C213.808 19.0034 213.405 19.0312 213.016 19.0312V21.0312ZM214.492 20.9287C215.071 20.8515 215.616 20.6814 216.116 20.411L215.165 18.6515C214.895 18.7978 214.585 18.8985 214.227 18.9463L214.492 20.9287ZM216.106 20.4162C216.671 20.1188 217.124 19.6819 217.461 19.1335L215.758 18.0853C215.595 18.3494 215.401 18.5271 215.175 18.6463L216.106 20.4162ZM217.467 19.1239C217.841 18.5002 217.984 17.7505 217.984 16.9531H215.984C215.984 17.5308 215.878 17.8852 215.752 18.0949L217.467 19.1239ZM217.984 16.9531C217.984 16.1365 217.845 15.366 217.461 14.7415L215.758 15.7897C215.873 15.9778 215.984 16.3323 215.984 16.9531H217.984ZM217.476 14.7672C217.15 14.199 216.698 13.7464 216.122 13.4432L215.191 15.213C215.406 15.3265 215.59 15.4989 215.742 15.7641L217.476 14.7672ZM216.122 13.4432C215.6 13.1687 215.027 13.0065 214.416 12.9429L214.209 14.9321C214.598 14.9726 214.92 15.0709 215.191 15.213L216.122 13.4432ZM214.418 12.9431C213.893 12.8872 213.363 12.8594 212.828 12.8594V14.8594C213.293 14.8594 213.753 14.8836 214.207 14.9319L214.418 12.9431ZM212.828 12.8594H207.828V14.8594H212.828V12.8594ZM206.828 13.8594V20.0312H208.828V13.8594H206.828Z" fill="#2B3F5E"/>
</g>
<defs>
<filter id="filter0_d_8_103" x="0.40625" y="0.453125" width="225.391" height="32.125" filterUnits="userSpaceOnUse" color-interpolation-filters="sRGB">
<feFlood flood-opacity="0" result="BackgroundImageFix"/>
<feColorMatrix in="SourceAlpha" type="matrix" values="0 0 0 0 0 0 0 0 0 0 0 0 0 0 0 0 0 0 127 0" result="hardAlpha"/>
<feOffset dy="4"/>
<feGaussianBlur stdDeviation="2"/>
<feComposite in2="hardAlpha" operator="out"/>
<feColorMatrix type="matrix" values="0 0 0 0 0 0 0 0 0 0 0 0 0 0 0 0 0 0 0.4 0"/>
<feBlend mode="normal" in2="BackgroundImageFix" result="effect1_dropShadow_8_103"/>
<feBlend mode="normal" in="SourceGraphic" in2="effect1_dropShadow_8_103" result="shape"/>
</filter>
</defs>
</svg>
